<svg width="367" height="48" viewBox="0 0 367 48" fill="none" xmlns="http://www.w3.org/2000/svg">
<path d="M7.944 30.32L7.512 21.344L23.592 4.4H32.232L17.736 20L13.416 24.608L7.944 30.32ZM0.984 38V4.4H8.712V38H0.984ZM23.976 38L12.024 23.36L17.112 17.84L33.048 38H23.976ZM47.1971 38.384C44.4451 38.384 41.9971 37.808 39.8531 36.656C37.7411 35.504 36.0611 33.936 34.8131 31.952C33.5971 29.936 32.9891 27.648 32.9891 25.088C32.9891 22.496 33.5971 20.208 34.8131 18.224C36.0611 16.208 37.7411 14.64 39.8531 13.52C41.9971 12.368 44.4451 11.792 47.1971 11.792C49.9171 11.792 52.3491 12.368 54.4931 13.52C56.6371 14.64 58.3171 16.192 59.5331 18.176C60.7491 20.16 61.3571 22.464 61.3571 25.088C61.3571 27.648 60.7491 29.936 59.5331 31.952C58.3171 33.936 56.6371 35.504 54.4931 36.656C52.3491 37.808 49.9171 38.384 47.1971 38.384ZM47.1971 32.24C48.4451 32.24 49.5651 31.952 50.5571 31.376C51.5491 30.8 52.3331 29.984 52.9091 28.928C53.4851 27.84 53.7731 26.56 53.7731 25.088C53.7731 23.584 53.4851 22.304 52.9091 21.248C52.3331 20.192 51.5491 19.376 50.5571 18.8C49.5651 18.224 48.4451 17.936 47.1971 17.936C45.9491 17.936 44.8291 18.224 43.8371 18.8C42.8451 19.376 42.0451 20.192 41.4371 21.248C40.8611 22.304 40.5731 23.584 40.5731 25.088C40.5731 26.56 40.8611 27.84 41.4371 28.928C42.0451 29.984 42.8451 30.8 43.8371 31.376C44.8291 31.952 45.9491 32.24 47.1971 32.24ZM66.3623 38V12.176H73.5143V19.472L72.5063 17.36C73.2743 15.536 74.5063 14.16 76.2023 13.232C77.8983 12.272 79.9623 11.792 82.3943 11.792V18.704C82.0743 18.672 81.7863 18.656 81.5303 18.656C81.2743 18.624 81.0023 18.608 80.7143 18.608C78.6663 18.608 77.0023 19.2 75.7223 20.384C74.4743 21.536 73.8503 23.344 73.8503 25.808V38H66.3623ZM99.1391 38.384C96.3551 38.384 93.8751 37.824 91.6991 36.704C89.5231 35.552 87.8111 33.968 86.5631 31.952C85.3471 29.936 84.7391 27.648 84.7391 25.088C84.7391 22.496 85.3471 20.208 86.5631 18.224C87.8111 16.208 89.5231 14.64 91.6991 13.52C93.8751 12.368 96.3551 11.792 99.1391 11.792C101.859 11.792 104.227 12.368 106.243 13.52C108.259 14.64 109.747 16.256 110.707 18.368L104.899 21.488C104.227 20.272 103.379 19.376 102.355 18.8C101.363 18.224 100.275 17.936 99.0911 17.936C97.8111 17.936 96.6591 18.224 95.6351 18.8C94.6111 19.376 93.7951 20.192 93.1871 21.248C92.6111 22.304 92.3231 23.584 92.3231 25.088C92.3231 26.592 92.6111 27.872 93.1871 28.928C93.7951 29.984 94.6111 30.8 95.6351 31.376C96.6591 31.952 97.8111 32.24 99.0911 32.24C100.275 32.24 101.363 31.968 102.355 31.424C103.379 30.848 104.227 29.936 104.899 28.688L110.707 31.856C109.747 33.936 108.259 35.552 106.243 36.704C104.227 37.824 101.859 38.384 99.1391 38.384ZM130.574 11.792C132.622 11.792 134.446 12.208 136.046 13.04C137.678 13.84 138.958 15.088 139.886 16.784C140.814 18.448 141.278 20.592 141.278 23.216V38H133.79V24.368C133.79 22.288 133.326 20.752 132.398 19.76C131.502 18.768 130.222 18.272 128.558 18.272C127.374 18.272 126.302 18.528 125.342 19.04C124.414 19.52 123.678 20.272 123.134 21.296C122.622 22.32 122.366 23.632 122.366 25.232V38H114.878V2.384H122.366V19.328L120.686 17.168C121.614 15.44 122.942 14.112 124.67 13.184C126.398 12.256 128.366 11.792 130.574 11.792ZM148.065 38V12.176H155.553V38H148.065ZM151.809 8.576C150.433 8.576 149.313 8.176 148.449 7.376C147.585 6.576 147.153 5.584 147.153 4.4C147.153 3.216 147.585 2.224 148.449 1.424C149.313 0.623998 150.433 0.223997 151.809 0.223997C153.185 0.223997 154.305 0.607998 155.169 1.376C156.033 2.112 156.465 3.072 156.465 4.256C156.465 5.504 156.033 6.544 155.169 7.376C154.337 8.176 153.217 8.576 151.809 8.576ZM160.727 38V33.488L175.991 15.44L177.287 17.936H161.063V12.176H183.335V16.688L168.071 34.736L166.727 32.24H183.767V38H160.727ZM204.261 11.792C206.309 11.792 208.133 12.208 209.733 13.04C211.365 13.84 212.645 15.088 213.573 16.784C214.501 18.448 214.965 20.592 214.965 23.216V38H207.477V24.368C207.477 22.288 207.013 20.752 206.085 19.76C205.189 18.768 203.909 18.272 202.245 18.272C201.061 18.272 199.989 18.528 199.029 19.04C198.101 19.52 197.365 20.272 196.821 21.296C196.309 22.32 196.053 23.632 196.053 25.232V38H188.565V2.384H196.053V19.328L194.373 17.168C195.301 15.44 196.629 14.112 198.357 13.184C200.085 12.256 202.053 11.792 204.261 11.792ZM221.753 38V12.176H229.241V38H221.753ZM225.497 8.576C224.121 8.576 223.001 8.176 222.137 7.376C221.273 6.576 220.841 5.584 220.841 4.4C220.841 3.216 221.273 2.224 222.137 1.424C223.001 0.623998 224.121 0.223997 225.497 0.223997C226.873 0.223997 227.993 0.607998 228.857 1.376C229.721 2.112 230.153 3.072 230.153 4.256C230.153 5.504 229.721 6.544 228.857 7.376C228.025 8.176 226.905 8.576 225.497 8.576ZM251.886 11.792C253.934 11.792 255.758 12.208 257.358 13.04C258.99 13.84 260.27 15.088 261.198 16.784C262.126 18.448 262.59 20.592 262.59 23.216V38H255.102V24.368C255.102 22.288 254.638 20.752 253.71 19.76C252.814 18.768 251.534 18.272 249.87 18.272C248.686 18.272 247.614 18.528 246.654 19.04C245.726 19.52 244.99 20.272 244.446 21.296C243.934 22.32 243.678 23.632 243.678 25.232V38H236.19V12.176H243.342V19.328L241.998 17.168C242.926 15.44 244.254 14.112 245.982 13.184C247.71 12.256 249.678 11.792 251.886 11.792ZM278.066 38.384C275.858 38.384 273.73 38.128 271.682 37.616C269.666 37.072 268.066 36.4 266.882 35.6L269.378 30.224C270.562 30.96 271.954 31.568 273.554 32.048C275.186 32.496 276.786 32.72 278.354 32.72C280.082 32.72 281.298 32.512 282.002 32.096C282.738 31.68 283.106 31.104 283.106 30.368C283.106 29.76 282.818 29.312 282.242 29.024C281.698 28.704 280.962 28.464 280.034 28.304C279.106 28.144 278.082 27.984 276.962 27.824C275.874 27.664 274.77 27.456 273.65 27.2C272.53 26.912 271.506 26.496 270.578 25.952C269.65 25.408 268.898 24.672 268.322 23.744C267.778 22.816 267.506 21.616 267.506 20.144C267.506 18.512 267.97 17.072 268.898 15.824C269.858 14.576 271.234 13.6 273.026 12.896C274.818 12.16 276.962 11.792 279.458 11.792C281.218 11.792 283.01 11.984 284.834 12.368C286.658 12.752 288.178 13.312 289.394 14.048L286.898 19.376C285.65 18.64 284.386 18.144 283.106 17.888C281.858 17.6 280.642 17.456 279.458 17.456C277.794 17.456 276.578 17.68 275.81 18.128C275.042 18.576 274.658 19.152 274.658 19.856C274.658 20.496 274.93 20.976 275.474 21.296C276.05 21.616 276.802 21.872 277.73 22.064C278.658 22.256 279.666 22.432 280.754 22.592C281.874 22.72 282.994 22.928 284.114 23.216C285.234 23.504 286.242 23.92 287.138 24.464C288.066 24.976 288.818 25.696 289.394 26.624C289.97 27.52 290.258 28.704 290.258 30.176C290.258 31.776 289.778 33.2 288.818 34.448C287.858 35.664 286.466 36.624 284.642 37.328C282.85 38.032 280.658 38.384 278.066 38.384ZM301.07 32.72L301.262 23.6L313.31 12.176H322.238L310.67 23.936L306.782 27.104L301.07 32.72ZM294.878 38V2.384H302.366V38H294.878ZM314.126 38L305.39 27.152L310.094 21.344L323.198 38H314.126ZM326.565 38V12.176H334.053V38H326.565ZM330.309 8.576C328.933 8.576 327.813 8.176 326.949 7.376C326.085 6.576 325.653 5.584 325.653 4.4C325.653 3.216 326.085 2.224 326.949 1.424C327.813 0.623998 328.933 0.223997 330.309 0.223997C331.685 0.223997 332.805 0.607998 333.669 1.376C334.533 2.112 334.965 3.072 334.965 4.256C334.965 5.504 334.533 6.544 333.669 7.376C332.837 8.176 331.717 8.576 330.309 8.576ZM344.267 47.696C342.923 47.696 341.595 47.488 340.283 47.072C338.971 46.656 337.899 46.08 337.067 45.344L339.803 40.016C340.379 40.528 341.035 40.928 341.771 41.216C342.539 41.504 343.291 41.648 344.027 41.648C345.083 41.648 345.915 41.392 346.523 40.88C347.163 40.4 347.739 39.584 348.251 38.432L349.595 35.264L350.171 34.448L359.435 12.176H366.635L354.971 39.584C354.139 41.664 353.179 43.296 352.091 44.48C351.035 45.664 349.851 46.496 348.539 46.976C347.259 47.456 345.835 47.696 344.267 47.696ZM348.683 39.008L337.163 12.176H344.891L353.819 33.776L348.683 39.008Z" fill="url(#paint0_linear_1_11)"/>
<defs>
<linearGradient id="paint0_linear_1_11" x1="182" y1="-19.5" x2="182" y2="99.5" gradientUnits="userSpaceOnUse">
<stop offset="0.307292" stop-color="white"/>
<stop offset="0.53125"/>
</linearGradient>
</defs>
</svg>
