<svg width="100" height="100" viewBox="0 0 100 100" fill="none" xmlns="http://www.w3.org/2000/svg">
<path d="M50 0C77.6136 0 100 22.3864 100 50C100 77.6136 77.6136 100 50 100C22.3864 100 0 77.6136 0 50C0 22.3864 22.3864 0 50 0ZM67.2477 70.3818C68.1659 67.5614 72.4773 39.4386 73.0068 33.8955C73.1682 32.2182 72.6364 31.1023 71.6 30.6023C70.3432 30 68.4841 30.3 66.3227 31.0795C63.3614 32.1477 25.5091 48.2182 23.3227 49.15C21.25 50.0318 19.2886 50.9909 19.2886 52.3841C19.2886 53.3636 19.8705 53.9136 21.4705 54.4841C23.1341 55.0773 27.3273 56.3477 29.8068 57.0318C32.1932 57.6909 34.9045 57.1182 36.4273 56.1727C38.0386 55.1705 56.6568 42.7159 57.9909 41.6227C59.325 40.5318 60.3909 41.9295 59.3 43.0227C58.2091 44.1136 45.4318 56.5159 43.7455 58.2341C41.6977 60.3182 43.15 62.4795 44.525 63.3455C46.0909 64.3341 57.3636 71.8932 59.0614 73.1068C60.7591 74.3205 62.4795 74.8705 64.0568 74.8705C65.6341 74.8682 66.4636 72.7909 67.2477 70.3818Z" fill="white"/>
</svg>
