<svg width="100" height="100" viewBox="0 0 100 100" fill="none" xmlns="http://www.w3.org/2000/svg">
<g clip-path="url(#clip0_68_97)">
<path d="M50 0C77.6136 0 100 22.9507 100 51.2605C100 74.0202 85.525 93.3058 65.5023 99.9953C65.5068 99.9767 65.5159 99.9464 65.5159 99.9464C65.5159 99.9464 62.1409 98.3247 62.2136 95.4308C62.2932 92.2457 62.2136 84.8152 62.2136 82.0868C62.2136 77.4034 59.3227 74.0855 59.3227 74.0855C59.3227 74.0855 81.9977 74.3464 81.9977 49.5433C81.9977 39.9739 77.1182 34.9923 77.1182 34.9923C77.1182 34.9923 79.6818 24.7752 76.2318 20.4413C72.3659 20.0126 65.4386 24.2299 62.4818 26.2011C62.4818 26.2011 57.7955 24.2299 50 24.2299C42.2045 24.2299 37.5182 26.2011 37.5182 26.2011C34.5614 24.2299 27.6364 20.0126 23.7682 20.4413C20.3182 24.7752 22.8818 34.9923 22.8818 34.9923C22.8818 34.9923 18.0023 39.9716 18.0023 49.5433C18.0023 74.3464 40.6773 74.0855 40.6773 74.0855C40.6773 74.0855 38.3932 76.7324 37.8932 80.6235C36.3114 81.1734 33.9818 81.8538 32.1 81.8538C27.1795 81.8538 23.4364 76.9491 22.0636 74.6819C20.7114 72.4451 17.9386 70.5671 15.3523 70.5671C13.65 70.5671 12.8182 71.4409 12.8182 72.4381C12.8182 73.4354 15.2045 74.1321 16.7795 75.9821C20.1 79.8826 20.0409 88.6528 31.8727 88.6528C33.1568 88.6528 35.7795 88.3289 37.7545 88.0563C37.7432 90.8174 37.7386 93.7322 37.7818 95.4355C37.8523 98.3294 34.4795 99.9511 34.4795 99.9511C34.4795 99.9511 34.4886 99.979 34.4932 100C14.475 93.3058 0 74.0202 0 51.2605C0 22.9507 22.3864 0 50 0Z" fill="white"/>
</g>
<defs>
<clipPath id="clip0_68_97">
<rect width="100" height="100" fill="white"/>
</clipPath>
</defs>
</svg>
